# xmcd CD database file
#
# Track frame offsets:
#	150
#	10765
#	23205
#	35685
#	46582
#	61842
#	72205
#	82740
#	93897
#	105332
#	114362
#	122337
#	131767
#	142392
#	152989
#	163782
#	172997
#	184052
#	193322
#	204535
#	214397
#	224115
#	233475
#	246337
#	257435
#	270105
#	279080
#	289010
#	301447
#	310392
#	320612
#	330892
#
# Disc length: 4551 seconds
#
# Revision: 1
# Processed by: cddbd v1.5.2PL0 Copyright (c) Steve Scherf et al.
# Submitted via: jetAudio 7
#
DISCID=c111c520
DTITLE=Chet Atkins - In 3 Dimensions... Plus
DYEAR=2005
DGENRE=Jazz
TTITLE0=Arkansas Traveler
TTITLE1=Ochi Chornya (Dark Eyes)
TTITLE2=La Golondrina (The Swallow)
TTITLE3=Blues In The Night
TTITLE4=Tenderly
TTITLE5=Little Rock Getaway
TTITLE6=Tip-Toe Through The Tulips With Me
TTITLE7=Minuet (From ''French Harpsichord Suite'') - Prelude (From ''Six
TTITLE7=Short Preludes'')
TTITLE8=Intermezzo
TTITLE9=Schön Rosmarin
TTITLE10=Minute Waltz
TTITLE11=Cherry Pink And Apple Blossom White
TTITLE12=(The Wallflower) Dance With Me, Henry
TTITLE13=Darling, Je Vous Aime Beaucoup
TTITLE14=Tweedle Dee
TTITLE15=Hey, Mr. Guitar (Hey, Mr. Banjo)
TTITLE16=Unchained Melody
TTITLE17=Tennessee Polka
TTITLE18=Black Mountain Rag
TTITLE19=Somebody Stole My Gal
TTITLE20=Shine On Harvest Moon
TTITLE21=Jingle Bells
TTITLE22=Christmas Carols
TTITLE23=Cecilia
TTITLE24=Arrivederci, Roma
TTITLE25=Sleigh Bells, Reindeer And Snow
TTITLE26=New Spanish Two Step
TTITLE27=Londonderry Air
TTITLE28=The Poor People Of Paris (Jean's Song) (1st Version)
TTITLE29=Honey (1st Version)
TTITLE30=The Poor People Of Paris (Jean's Song) (2nd Version)
TTITLE31=Honey (2nd Version)
EXTD=YEAR: 2005
EXTT0=
EXTT1=
EXTT2=
EXTT3=
EXTT4=
EXTT5=
EXTT6=
EXTT7=
EXTT8=
EXTT9=
EXTT10=
EXTT11=
EXTT12=
EXTT13=
EXTT14=
EXTT15=
EXTT16=
EXTT17=
EXTT18=
EXTT19=
EXTT20=
EXTT21=
EXTT22=
EXTT23=
EXTT24=
EXTT25=
EXTT26=
EXTT27=
EXTT28=
EXTT29=
EXTT30=
EXTT31=
PLAYORDER=
